<svg xmlns="http://www.w3.org/2000/svg" viewBox="0 0 256 256" width="256" height="256">
  <defs>
    <radialGradient id="bg" cx="50%" cy="45%" r="65%">
      <stop offset="0%" style="stop-color:#1b1040"/>
      <stop offset="100%" style="stop-color:#07050f"/>
    </radialGradient>
    <radialGradient id="coreGrad" cx="50%" cy="50%" r="50%">
      <stop offset="0%" style="stop-color:#ffffff"/>
      <stop offset="40%" style="stop-color:#c084fc"/>
      <stop offset="100%" style="stop-color:#7c3aed;stop-opacity:0"/>
    </radialGradient>
    <filter id="glow" x="-60%" y="-60%" width="220%" height="220%">
      <feGaussianBlur stdDeviation="5" result="b"/>
      <feMerge><feMergeNode in="b"/><feMergeNode in="SourceGraphic"/></feMerge>
    </filter>
    <filter id="bigGlow" x="-100%" y="-100%" width="300%" height="300%">
      <feGaussianBlur stdDeviation="10" result="b"/>
      <feMerge><feMergeNode in="b"/><feMergeNode in="SourceGraphic"/></feMerge>
    </filter>
    <filter id="softGlow" x="-30%" y="-30%" width="160%" height="160%">
      <feGaussianBlur stdDeviation="3.5" result="b"/>
      <feMerge><feMergeNode in="b"/><feMergeNode in="SourceGraphic"/></feMerge>
    </filter>
  </defs>

  <!-- Background -->
  <rect width="256" height="256" rx="54" ry="54" fill="url(#bg)"/>
  <rect width="256" height="256" rx="54" ry="54" fill="none" stroke="#8957e5" stroke-width="1.5" opacity="0.3"/>

  <!-- Orbit 1: Purple — Copilot (tilted -30°) -->
  <g transform="rotate(-30, 128, 128)">
    <ellipse cx="128" cy="128" rx="88" ry="28" fill="none" stroke="#8957e5" stroke-width="3" filter="url(#softGlow)"/>
    <circle cx="216" cy="128" r="7" fill="#8957e5" filter="url(#glow)"/>
    <circle cx="40"  cy="128" r="5" fill="#8957e5" opacity="0.5" filter="url(#softGlow)"/>
  </g>

  <!-- Orbit 2: Blue — Proxy (tilted 90°) -->
  <g transform="rotate(90, 128, 128)">
    <ellipse cx="128" cy="128" rx="88" ry="28" fill="none" stroke="#3b82f6" stroke-width="3" filter="url(#softGlow)"/>
    <circle cx="216" cy="128" r="7" fill="#3b82f6" filter="url(#glow)"/>
    <circle cx="40"  cy="128" r="5" fill="#3b82f6" opacity="0.5" filter="url(#softGlow)"/>
  </g>

  <!-- Orbit 3: Teal — AI (tilted 150°) -->
  <g transform="rotate(150, 128, 128)">
    <ellipse cx="128" cy="128" rx="88" ry="28" fill="none" stroke="#14b8a6" stroke-width="3" filter="url(#softGlow)"/>
    <circle cx="216" cy="128" r="7" fill="#14b8a6" filter="url(#glow)"/>
    <circle cx="40"  cy="128" r="5" fill="#14b8a6" opacity="0.5" filter="url(#softGlow)"/>
  </g>

  <!-- Nucleus halo -->
  <circle cx="128" cy="128" r="28" fill="#7c3aed" opacity="0.15" filter="url(#bigGlow)"/>
  <!-- Nucleus ring -->
  <circle cx="128" cy="128" r="19" fill="#1b1040" stroke="#c084fc" stroke-width="2.5" filter="url(#glow)"/>
  <!-- 4-point star -->
  <path d="M128 112 L130.5 123.5 L142 128 L130.5 132.5 L128 144 L125.5 132.5 L114 128 L125.5 123.5 Z"
        fill="url(#coreGrad)" filter="url(#bigGlow)"/>
  <!-- Bright center dot -->
  <circle cx="128" cy="128" r="3.5" fill="white" opacity="0.95"/>
</svg>
